{"title":"Stalingrad 2014 3D 1080p BluRay Half-SBS x264 AC3 5.1 DUAL KALAZ","uid":11381261,"size":13500178867,"categoryP":"video","categoryS":"hd___movies","magnet":"?xt=urn:btih:0d7f9c4c1371180a72d850dcd7b0f10891d238ec&amp;dn=Stalingrad+2014+3D+1080p+BluRay+Half-SBS+x264+AC3+5.1+DUAL+KALAZ&amp;tr=udp%3A%2F%2Ftracker.openbittorrent.com%3A80&amp;tr=udp%3A%2F%2Fopen.demonii.com%3A1337&amp;tr=udp%3A%2F%2Ftracker.coppersurfer.tk%3A6969&amp;tr=udp%3A%2F%2Fexodus.desync.com%3A6969","seeders":3,"leechers":7,"uploader":"Alemao99","files":7,"time":1415217747,"description":"During the bloody battle of Stalingrad, at the height of World War II, six soldiers facing enemies friends, live love stories and struggle to keep the land away from the German forces. \n\nOriginal Title: Stalingrad \nTitle in Brazil: Stalingrad - The Final Battle \nDirector: Fedor Bondarchuk \nCountry of Origin: Russia \nGenre: Action / Drama / War \nDuration: 2h 11 min \nRelease Year: 2014 \nIMDb: http://www.imdb.com/title/tt1966566/ \n\nSize: 12:57 GB \nFile extension: .MKV \nVideo Quality: Bluray - 3D \nVideo codec: H.264 / AVC \nAudio Codec: AC3 5.1 \nResolution: 1920 x 1080 \nAudio Language: Portuguese / English / Russian\nSubtitles: Portuguese\n\n\nFormat                                   : Matroska\nFormat version                           : Version 4 / Version 2\nFile size                                : 12.6 GiB\nDuration                                 : 2h 10mn\nOverall bit rate                         : 13.7 Mbps\nMovie name                               : Stalingrado.A.Batalha.Final.3D.2014.1080p.BluRay.Half-SBS.x264.AC3.5.1.DUAL-KALAZANS\nEncoded date                             : UTC 2014-11-01 04:47:51\nWriting application                      : mkvmerge v6.4.1 ('Omega Point') built on Sep 16 2013 22:05:10\nWriting library                          : libebml v1.3.0 + libmatroska v1.4.1\n\nVideo\nID                                       : 1\nFormat                                   : AVC\nFormat/Info                              : Advanced Video Codec\nFormat profile                           : &lt;a class=&quot;__cf_email__&quot; href=&quot;/cdn-cgi/l/email-protection&quot; data-cfemail=&quot;efa7868887afa3dbc1de&quot;&gt;[email&amp;#160;protected]&lt;/a&gt;&lt;script cf-hash='f9e31' type=&quot;text/javascript&quot;&gt;\n/* &lt;![CDATA[ */!function(){try{var t=&quot;currentScript&quot;in document?document.currentScript:function(){for(var t=document.getElementsByTagName(&quot;script&quot;),e=t.length;e--;)if(t[e].getAttribute(&quot;cf-hash&quot;))return t[e]}();if(t&amp;&amp;t.previousSibling){var e,r,n,i,c=t.previousSibling,a=c.getAttribute(&quot;data-cfemail&quot;);if(a){for(e=&quot;&quot;,r=parseInt(a.substr(0,2),16),n=2;a.length-n;n+=2)i=parseInt(a.substr(n,2),16)^r,e+=String.fromCharCode(i);e=document.createTextNode(e),c.parentNode.replaceChild(e,c)}}}catch(u){}}();/* ]]&gt; */&lt;/script&gt;\nFormat settings, CABAC                   : Yes\nFormat settings, ReFrames                : 2 frames\nCodec ID                                 : V_MPEG4/ISO/AVC\nDuration                                 : 2h 10mn\nBit rate                                 : 11.7 Mbps\nWidth                                    : 1 920 pixels\nHeight                                   : 1 080 pixels\nDisplay aspect ratio                     : 16:9\nFrame rate                               : 23.976 fps\nColor space                              : YUV\nChroma subsampling                       : 4:2:0\nBit depth                                : 8 bits\nScan type                                : Progressive\nBits/(Pixel*Frame)                       : 0.236\nStream size                              : 10.7 GiB (85%)\nTitle                                    : Stalingrado.A.Batalha.Final.3D.2014.1080p.BluRay.Half-SBS.x264.AC3.5.1.DUAL-KALAZANS\nWriting library                          : x264 core\nDefault                                  : Yes\nForced                                   : No\nColor primaries                          : BT.709-5, BT.1361, IEC 61966-2-4, SMPTE RP177\nTransfer characteristics                 : BT.709-5, BT.1361\nMatrix coefficients                      : BT.709-5, BT.1361, IEC 61966-2-4 709, SMPTE RP177\n\nAudio #1\nID                                       : 2\nFormat                                   : AC-3\nFormat/Info                              : Audio Coding 3\nMode extension                           : CM (complete main)\nFormat settings, Endianness              : Big\nCodec ID                                 : A_AC3\nDuration                                 : 2h 10mn\nBit rate mode                            : Constant\nBit rate                                 : 448 Kbps\nChannel(s)                               : 6 channels\nChannel positions                        : Front: L C R, Side: L R, LFE\nSampling rate                            : 48.0 KHz\nBit depth                                : 16 bits\nCompression mode                         : Lossy\nStream size                              : 419 MiB (3%)\nTitle                                    : AC3 5.1 - KALAZANS-PT-BR\nLanguage                                 : Portuguese\nDefault                                  : Yes\nForced                                   : Yes\n\nAudio #2\nID                                       : 3\nFormat                                   : AC-3\nFormat/Info                              : Audio Coding 3\nMode extension                           : CM (complete main)\nFormat settings, Endianness              : Big\nCodec ID                                 : A_AC3\nDuration                                 : 2h 10mn\nBit rate mode                            : Constant\nBit rate                                 : 640 Kbps\nChannel(s)                               : 6 channels\nChannel positions                        : Front: L C R, Side: L R, LFE\nSampling rate                            : 48.0 KHz\nBit depth                                : 16 bits\nCompression mode                         : Lossy\nStream size                              : 599 MiB (5%)\nTitle                                    : AC3 5.1@kalazans\nLanguage                                 : Russian\nDefault                                  : No\nForced                                   : No\n\nAudio #3\nID                                       : 4\nFormat                                   : AC-3\nFormat/Info                              : Audio Coding 3\nMode extension                           : CM (complete main)\nFormat settings, Endianness              : Big\nCodec ID                                 : A_AC3\nDuration                                 : 2h 10mn\nBit rate mode                            : Constant\nBit rate                                 : 640 Kbps\nChannel(s)                               : 6 channels\nChannel positions                        : Front: L C R, Side: L R, LFE\nSampling rate                            : 48.0 KHz\nBit depth                                : 16 bits\nCompression mode                         : Lossy\nStream size                              : 599 MiB (5%)\nTitle                                    : AC3 5.1@kalazans\nLanguage                                 : English\nDefault                                  : No\nForced                                   : No\n\n\n\n\nSEED PLEASE\n\nENJOY","torrent":{"xt":"urn:btih:0d7f9c4c1371180a72d850dcd7b0f10891d238ec","amp;dn":"Stalingrad+2014+3D+1080p+BluRay+Half-SBS+x264+AC3+5.1+DUAL+KALAZ","amp;tr":["udp%3A%2F%2Ftracker.openbittorrent.com%3A80","udp%3A%2F%2Fopen.demonii.com%3A1337","udp%3A%2F%2Ftracker.coppersurfer.tk%3A6969","udp%3A%2F%2Fexodus.desync.com%3A6969"],"infoHash":"0d7f9c4c1371180a72d850dcd7b0f10891d238ec","infoHashBuffer":{"type":"Buffer","data":[13,127,156,76,19,113,24,10,114,216,80,220,215,176,241,8,145,210,56,236]},"announce":[],"urlList":[]}}